<?xml version="1.0" encoding="UTF-8" standalone="no"?>
<svg
   viewBox="0 0 40 40"
   width="40"
   height="40"
   version="1.1"
   id="svg2"
   sodipodi:docname="python.svg"
   inkscape:version="1.3.2 (091e20e, 2023-11-25, custom)"
   xmlns:inkscape="http://www.inkscape.org/namespaces/inkscape"
   xmlns:sodipodi="http://sodipodi.sourceforge.net/DTD/sodipodi-0.dtd"
   xmlns="http://www.w3.org/2000/svg"
   xmlns:svg="http://www.w3.org/2000/svg">
  <defs
     id="defs2" />
  <sodipodi:namedview
     id="namedview2"
     pagecolor="#ffffff"
     bordercolor="#000000"
     borderopacity="0.25"
     inkscape:showpageshadow="2"
     inkscape:pageopacity="0.0"
     inkscape:pagecheckerboard="0"
     inkscape:deskcolor="#d1d1d1"
     inkscape:zoom="16.979167"
     inkscape:cx="21.143558"
     inkscape:cy="21.173006"
     inkscape:window-width="1920"
     inkscape:window-height="1051"
     inkscape:window-x="-9"
     inkscape:window-y="-9"
     inkscape:window-maximized="1"
     inkscape:current-layer="svg2" />
  <path
     fill="#0277bd"
     d="m 20.748841,0.8773006 c -1.555,0.005 -2.633,0.142 -3.936,0.367 -3.848,0.67 -4.549,2.077 -4.549,4.67 v 3.9629996 h 9 V 11.8773 h -9.342 -4.3500005 c -2.636,0 -4.943,1.242 -5.674,4.219 -0.826,3.417 -0.863,5.557 0,9.125 0.655,2.661 2.098,4.656 4.735,4.656 h 3.6320005 v -5.104 c 0,-2.966 2.686,-5.896 5.764,-5.896 h 7.236 c 2.523,0 5,-1.862 5,-4.377 V 5.9143006 c 0,-2.439 -1.759,-4.263 -4.218,-4.672 0.061,-0.006 -1.756,-0.371 -3.298,-0.365 z m -4.984,4 c 0.821,0 1.5,0.677 1.5,1.502 0,0.8329996 -0.679,1.4979996 -1.5,1.4979996 -0.837,0 -1.5,-0.664 -1.5,-1.4979996 0,-0.822 0.663,-1.502 1.5,-1.502 z"
     id="path1" />
  <path
     fill="#ffc107"
     d="m 19.779841,38.8773 c 1.555,-0.005 2.633,-0.142 3.936,-0.367 3.848,-0.67 4.549,-2.077 4.549,-4.67 v -3.963 h -9 v -2 h 9.343 4.35 c 2.636,0 4.943,-1.242 5.674,-4.219 0.826,-3.417 0.863,-5.557 0,-9.125 -0.656,-2.661 -2.099,-4.6559998 -4.736,-4.6559998 h -3.632 V 14.9813 c 0,2.966 -2.686,5.896 -5.764,5.896 h -7.236 c -2.523,0 -5,1.862 -5,4.377 v 8.586 c 0,2.439 1.759,4.263 4.218,4.672 -0.061,0.006 1.756,0.371 3.298,0.365 z m 4.985,-4 c -0.821,0 -1.5,-0.677 -1.5,-1.502 0,-0.833 0.679,-1.498 1.5,-1.498 0.837,0 1.5,0.664 1.5,1.498 0,0.822 -0.664,1.502 -1.5,1.502 z"
     id="path2" />
</svg>
